<svg id="Layer_1" data-name="Layer 1" 
	xmlns="http://www.w3.org/2000/svg" viewBox="0 0 617.68 128.95">
	<defs>
		<style>.cls-1{fill:#009fda;}.cls-2{fill:#0046ad;}.cls-3{fill:#fff;}</style>
	</defs>
	<title>Tunnus_Terveystalo_vaaka_RGB</title>
	<path class="cls-1" d="M855.82,482.44c.49,0,.81.34.81.94v5.26c0,.69-.16.86-.88.86H645.92a.67.67,0,0,1-.63-.37c-.13-.32,0-.48.23-.85s3.68-4.42,4.16-5a1.86,1.86,0,0,1,1.58-.85Z" transform="translate(-240.34 -378.26)"/>
	<path class="cls-2" d="M663.27,420.41H651.61a.81.81,0,0,0-.81.6L641,460.93c-.16.43-.4.69-.8.69H640a1,1,0,0,1-.88-.77L627.81,421c-.16-.51-.4-.6-1-.6H614.71c-.4,0-.81.17-.81.51a.33.33,0,0,1,.08.18l14.75,45.2a4.66,4.66,0,0,0,4.16,3.23h3.93a.74.74,0,0,1,.72.78v.08c0,.22-.1.45-.16.67-2.13,7.29-11.8,17.22-11.94,17.47a.82.82,0,0,0-.16.43.64.64,0,0,0,.64.6h10.8a2.21,2.21,0,0,0,1.44-.6,45.5,45.5,0,0,0,10.2-14.07c2.65-5.22,4.71-12.35,5.74-16.11l9.81-37.68v-.18a.58.58,0,0,0-.64-.51" transform="translate(-240.34 -378.26)"/>
	<path class="cls-2" d="M734.46,468.77c-.16.51-.48.68-1,.86-3.94.34-6.2.51-9.25.51-8.12,0-12.22-3.7-12.22-13V428.94c0-.61-.16-.86-.73-.86h-4.82a.8.8,0,0,1-.81-.86v-6c0-.51.25-.77.89-.77h4.74c.57,0,.73-.35.73-.95l.07-11.35c0-.52.25-.77.81-.86l11.74-.77c.56,0,.72.17.72.86v12.21a.78.78,0,0,0,.89.86h6.27c.64,0,.88.26.88.86v5.94c0,.51-.24.77-.8.77h-6.35a.84.84,0,0,0-.89.95v26.75c0,4.64,1.93,5.94,6.35,5.94h2.74a.74.74,0,0,1,.72.77v.09Z" transform="translate(-240.34 -378.26)"/>
	<path class="cls-2" d="M554.24,465.79c-.42,1.59-1.8,3.74-3.89,3.74l-14.54,0c-1.95,0-3.48-2.31-3.87-3.75l-13-44.52a.34.34,0,0,1-.08-.26c0-.34.24-.6.8-.6h12.22a.93.93,0,0,1,1,.69L542.49,461c.08.42.56.6,1,.6a.78.78,0,0,0,.88-.69L554,421a1,1,0,0,1,1-.6h11.49a.58.58,0,0,1,.64.6v.26Z" transform="translate(-240.34 -378.26)"/>
	<path class="cls-2" d="M590.87,427.73c-7.32,0-8.85,5.85-8.85,12.82,0,.78.17.95.73.95h16c.56,0,.88-.09.88-.86,0-7.15-1.29-12.91-8.76-12.91m21.7,21.42H583.15c-.48,0-.72.09-.72.78,0,9.12,4.66,11.95,14.06,11.95a101.88,101.88,0,0,0,10.46-.77h.24c.32,0,.56.09.56.69V462l-.8,6.63c-.16.68-.4.68-.89.85a100.3,100.3,0,0,1-13.42,1.12C578.32,470.57,568,465,568,445c0-17.2,8.77-25.46,22.92-25.46,17.52,0,22.43,9.89,22.43,28.65,0,.69-.32.94-.81.94" transform="translate(-240.34 -378.26)"/>
	<path class="cls-2" d="M680.42,470.66A82.17,82.17,0,0,1,667,469.45c-.64-.17-.88-.43-.88-.94v-6.28c0-.51.24-.78,1-.78,2.09.17,7.32.61,11.5.61,6.27,0,10.21-1.29,10.21-5.85,0-10.24-22.59-7.4-22.59-23,0-10.14,9.32-14.1,20.18-14.1a67.49,67.49,0,0,1,13.75,1.63c.48.09,1,.35,1,.87l-1,5.76c-.08.43-.24.69-.65.69h-.16c-2.73-.18-7.48-.61-10.29-.61-5.63,0-9.32.78-9.32,5.16,0,9,22.5,5.85,22.5,21.94,0,10-7.23,16.09-21.78,16.09" transform="translate(-240.34 -378.26)"/>
	<path class="cls-2" d="M768.28,446.4c0-.51-.16-.69-.81-.69h-6.11c-6.35,0-9.73,1.64-9.73,7.57,0,6.37,3.46,8.35,9.73,8.35h6c.73,0,.89-.26.89-.86Zm13.18,21.07a1.05,1.05,0,0,1-1,1.21c-6.11.77-13.67,1.89-20.58,1.89-12.71,0-21.79-3.69-21.79-16.86,0-12.9,8.84-16,19.06-16a103.67,103.67,0,0,1,10.93.94c0-7.73-2.81-10.83-12.06-10.83-3.06,0-7.24.34-10.69.6h-.25c-.56,0-.72-.26-.89-.77l-.72-6.2v-.17c0-.35.25-.52.65-.69a153.66,153.66,0,0,1,16.32-1c12.78,0,21,4.9,21,18.67Z" transform="translate(-240.34 -378.26)"/>
	<path class="cls-2" d="M802.56,470.13H790.74c-.57,0-.72-.26-.72-.87V404.35a.84.84,0,0,1,.72-1l11.74-.87a.78.78,0,0,1,.89.87v65.86c0,.61-.17.87-.81.87" transform="translate(-240.34 -378.26)"/>
	<path class="cls-2" d="M834.3,427.39c-7.64,0-10.37,4.81-10.37,18,0,12.47,3,17.12,10.37,17.12,7.56,0,10.3-4.82,10.3-17.12,0-13.25-2.74-18-10.3-18m0,43.1c-14.95,0-23.8-8.43-23.8-25,0-18.06,9.41-25.81,23.8-25.81S858,427.22,858,445.45c0,16.52-8.77,25-23.72,25" transform="translate(-240.34 -378.26)"/>
	<path class="cls-2" d="M462,427.73c-7.31,0-8.84,5.85-8.84,12.82,0,.78.16.95.72.95h16c.56,0,.89-.09.89-.86,0-7.15-1.29-12.91-8.77-12.91m21.71,21.42H454.28c-.48,0-.72.09-.72.78,0,9.12,4.66,11.95,14.07,11.95a101.9,101.9,0,0,0,10.45-.77h.24c.32,0,.57.09.57.69V462l-.81,6.63c-.16.68-.4.68-.88.85a100.44,100.44,0,0,1-13.43,1.12c-14.31,0-24.6-5.58-24.6-25.55,0-17.2,8.76-25.46,22.91-25.46,17.53,0,22.43,9.89,22.43,28.65,0,.69-.32.94-.8.94" transform="translate(-240.34 -378.26)"/>
	<path class="cls-2" d="M515.06,428c-3.46.09-5.45.3-9.07.56a1.39,1.39,0,0,0-1.3,1.54V468.6c0,.68-.25.94-.81.94H492.14c-.48,0-.8-.26-.8-.86V425.89c0-1.94.38-3.92,3-4.2,5.6-.61,14.43-1.44,20.86-1.7.48,0,.72.34.72.86v6.37a.78.78,0,0,1-.88.77" transform="translate(-240.34 -378.26)"/>
	<path class="cls-2" d="M448.41,414c-.08.63-.33.89-.92.89h-17v53.33c0,.63-.25,1.08-1,1.08H416.8c-.59,0-.84-.36-.84-1.08V414.88H399.24c-.51,0-.84-.36-.84-1v-7.54c0-.72.16-.9.92-.9h49.09a.68.68,0,0,1,.76.63v.18Z" transform="translate(-240.34 -378.26)"/>
	<path class="cls-1" d="M400.46,489.5c-.48,0-.81-.35-.81-.94v-5.27c0-.68.16-.85.89-.85h222.7a.6.6,0,0,1,.57.37.83.83,0,0,1-.18.84c-1.26,1.69-3.75,4.42-4.27,5s-.72.85-1.28.85Z" transform="translate(-240.34 -378.26)"/>
	<rect class="cls-1" x="250.35" y="388.26" width="108.93" height="108.93" rx="30.31" transform="translate(-464.12 -33.05) rotate(-45)"/>
	<path class="cls-3" d="M341.43,415.64a6.39,6.39,0,0,0-9-1,73.68,73.68,0,0,1-64.15,13.87,6.39,6.39,0,0,0-3.17,12.38,85.67,85.67,0,0,0,21.27,2.66,87.82,87.82,0,0,0,12-.83v41.9a6.39,6.39,0,0,0,12.78,0V440.69a5.81,5.81,0,0,0-.05-.72,85.27,85.27,0,0,0,29.31-15.35A6.39,6.39,0,0,0,341.43,415.64Z" transform="translate(-240.34 -378.26)"/>
	<path class="cls-3" d="M304.83,421a7.78,7.78,0,1,0-7.79-7.78,7.78,7.78,0,0,0,7.79,7.78" transform="translate(-240.34 -378.26)"/>
</svg>